<svg version="1.1" id="Layer_1" xmlns="http://www.w3.org/2000/svg" xmlns:xlink="http://www.w3.org/1999/xlink" x="0" y="0" viewBox="0 0 87.3 87.3" xml:space="preserve"><style>.st1{fill:#92a9ed}.st2{fill:#5f70af}.st4{fill:#c1c1c1}.st5{fill:#a3a2a2}.st7{fill:#fff}.st14{fill:#58595b}</style><linearGradient id="SVGID_1_" gradientUnits="userSpaceOnUse" x1="13.857" y1="43.65" x2="73.442" y2="43.65"><stop offset="0" stop-color="#6b8ac7"/><stop offset="1" stop-color="#8462ca"/></linearGradient><circle cx="43.7" cy="43.7" r="29.8" fill="url(#SVGID_1_)"/><g id="php"><path class="st1" d="M21.5 28.6l1.1 3.3C27 46.6 32.9 58 40.7 67c.9 1.2 1.6 2.2 1.5 2.2s-1-.9-1.9-2c-8-9.1-13.6-20.6-17.9-35.4-.6-1.8-.9-3.2-.9-3.2z"/><path class="st1" d="M18 26c3.1 3 3.4 3 3.5 2.7.1-.2-.1-.7-3.3-3.7-3.2-3.1-5.6-5.2-5.6-5 .1.2 2.4 3.1 5.4 6zM18.7 28.7c3.4 3.2 3.8 3.3 3.8 3 .1-.3-.1-.7-3.6-4.1-3.5-3.3-6.1-5.7-6-5.5 0 .2 2.4 3.4 5.8 6.6zM18.5 30.4c4 2.9 4.5 2.9 4.5 2.7.1-.3-.3-.7-4.5-3.7-4.1-3-6.7-4.8-6.7-4.7.1.3 2.8 3 6.7 5.7zM18.9 32.7c4.2 2.5 4.7 2.5 4.7 2.2.1-.3-.4-.7-4.7-3.3-4.3-2.6-6.9-4-6.9-3.8.1.3 2.8 2.5 6.9 4.9zM19.2 34.8c4.3 1.9 4.8 1.9 4.8 1.6 0-.3-.5-.7-4.9-2.7S12 30.8 12 30.9c.1.2 3 2 7.2 3.9zM19.8 39.9c5.2 1.3 5.9 1.2 5.8.8.1-.4-.6-1-5.9-2.4-5.2-1.4-8.2-1.2-8.2-1 .1.3 3.2 1.3 8.3 2.6zM19.6 37.2c4.5 1.2 5.1 1.2 5.1.8.1-.3-.6-.7-5.2-2-4.5-1.2-7.2-1.3-7.2-1.1.1.2 2.8 1.1 7.3 2.3zM20.4 42.6c5.3 1 5.9.9 5.9.4 0-.4-.6-.9-6-2-5.3-1-8.3-.6-8.3-.4 0 .3 3.2 1 8.4 2zM22.7 50.7c6-.1 6.6-.4 6.5-.9 0-.4-.7-.9-6.8-.7-6 .2-9.7 1.6-9.7 1.8.1.2 4.1 0 10-.2zM21.7 47.5c5.9.1 6.6-.1 6.5-.6 0-.4-.7-.8-6.6-.9-5.8 0-9.4 1.2-9.4 1.4s3.7 0 9.5.1zM20.5 45.1c5.9 0 6.5-.2 6.5-.6 0-.4-.7-.8-6.6-.8-5.8 0-9.1 1.4-9.1 1.6-.1 0 3.5-.2 9.2-.2zM23.7 53.4c6.4-.5 6.9-.8 6.9-1.2s-.7-.7-7-.1c-6.4.6-10.6 2-10.6 2.2 0 .1 4.4-.4 10.7-.9zM24.7 55.3c6.4-.4 6.9-.7 6.8-1.1 0-.4-.7-.7-7-.2s-10.7 1.8-10.7 1.9 4.6-.3 10.9-.6zM26.7 59.5c7.1-.1 7.6-.5 7.6-.9-.1-.4-.6-.8-7.6-.5s-12.2 1.3-12.3 1.4c-.1.1 5.2.1 12.3 0zM25.3 57.5c7.1-.3 7.7-.7 7.6-1.1 0-.4-.7-.8-7.7-.3S13.1 57.8 13.1 58c0 0 5.1-.3 12.2-.5zM30.2 65.2c7.9.1 8.1-.6 8.1-1.1-.2-.6-.7-.8-8.3-.4-8 .3-14.4.4-14.4.5-.2-.1 6.4.7 14.6 1zM33.3 68.6c7-.5 7-1.6 6.9-2-.3-.7-.7-.5-7.6.5-7 .8-12.9 0-12.8.1-.1-.1 6.3 1.6 13.5 1.4zM36.1 71.7c6-1.2 5.9-2.8 5.7-3.1-.3-.8-.7-.1-6.8 1.6-6.2 1.4-11.4-.9-11.2-.8 0-.1 6.1 3 12.3 2.3zM27.6 62.4c8.2 0 8.5-.6 8.4-1.1-.2-.6-.7-.9-8.7-.5S12.9 62 12.8 62.1c0 0 6.5.3 14.8.3z"/><path class="st1" d="M19.8 24.5c1.5 3.8 1.3 4.1 1.1 4.1-.3 0-.6-.4-2.1-4.3s-2.6-6.6-2.4-6.5c.2-.1 2 2.9 3.4 6.7z"/><path class="st1" d="M21.8 27.2c1.1 4.2.9 4.6.6 4.5-.3 0-.6-.5-1.7-4.9s-1.9-7.2-1.7-7.1c.3 0 1.7 3.2 2.8 7.5zM17.7 22.3c2.5 4.3 2.5 4.8 2.3 4.8-.3 0-.7-.4-3.3-4.9s-4.4-7.7-4.2-7.6c.2.1 2.7 3.4 5.2 7.7z"/><path class="st1" d="M23.5 29.8c.4 4.7.2 5.1 0 5-.3-.1-.5-.7-1-5.5s-.7-7.6-.5-7.5c.1.2 1.1 3.5 1.5 8z"/><path class="st1" d="M24.6 31.4c-.1 4.6-.4 5.1-.6 4.9-.3-.1-.4-.7-.3-5.5s.4-7.4.5-7.3.5 3.4.4 7.9zM27 34.9c-1 5.3-1.4 5.9-1.8 5.6-.4-.1-.6-1 .4-6.4 1-5.3 2.4-7.9 2.6-7.8.2.3-.1 3.4-1.2 8.6z"/><path class="st1" d="M25.8 33c-.9 4.6-1.2 5.1-1.4 4.9-.3-.1-.4-.8.4-5.5.8-4.6 1.9-6.9 2-6.8.2.3-.1 3.1-1 7.4zM28.4 37.2c-1.4 5.2-1.8 5.8-2.1 5.5-.4-.1-.6-1 .8-6.3 1.3-5.3 3-7.9 3.2-7.8.2.2-.5 3.4-1.9 8.6zM33.1 44.4c-2.7 5.4-3.2 5.8-3.6 5.5-.4-.2-.5-1 2.3-6.4 2.8-5.3 5.6-8.2 5.8-8.1 0 .1-1.8 3.7-4.5 9zM31.4 41.3c-2.5 5.4-2.9 5.9-3.3 5.6-.3-.1-.4-1 2.1-6.4 2.5-5.3 5.1-8.1 5.3-8 .1.2-1.6 3.5-4.1 8.8zM30.3 39.1c-2.5 5.3-3 5.9-3.3 5.6-.3-.1-.4-1 2.1-6.4 2.5-5.3 5.1-7.8 5.3-7.7.1.1-1.6 3.2-4.1 8.5zM34.8 46.3c-3.2 5.5-3.8 5.8-4.1 5.6-.3-.2-.4-.9 2.9-6.3s6.5-8.5 6.6-8.5c.1.1-2.3 3.8-5.4 9.2zM35.7 48.5c-3.2 5.5-3.7 5.8-4 5.6s-.4-.9 2.9-6.3c3.2-5.4 6.3-8.7 6.5-8.7 0 .1-2.3 4-5.4 9.4zM38.4 52.4c-3.3 6.2-3.9 6.4-4.2 6.2-.4-.3-.4-.8 3-6.9 3.4-6.1 6.8-10.2 6.9-10.2.1.1-2.4 4.6-5.7 10.9zM37.1 50.1c-3.5 6.2-4 6.4-4.4 6.2s-.4-.9 3.1-6.9c3.6-6 7-9.9 7.2-9.9.1.1-2.5 4.5-5.9 10.6zM43.1 57.6c-3.6 7-4.3 6.8-4.7 6.6-.5-.5-.5-.9 3.4-7.6 3.9-6.9 7.3-12.4 7.4-12.3 0-.2-2.6 6-6.1 13.3zM44.7 60.5c-3.4 6.8-4.1 6.4-4.5 6.1-.4-.5-.4-.8 3.3-7.3 3.7-6.6 6.5-12.4 6.6-12.4.1 0-2.1 6.6-5.4 13.6zM46.5 63.1c-3.5 6.4-4.5 5.7-4.8 5.4-.5-.6-.1-.7 3.8-6.8 4-6.2 5.7-12.6 5.7-12.6s-1.3 7.4-4.7 14zM41.1 54.5c-3.8 7.2-4.5 7.1-4.9 6.9-.5-.4-.5-1 3.5-7.8 4-7 7.9-12.1 8-12.1.1-.1-2.8 5.6-6.6 13z"/><g><path class="st2" d="M63.1 44.1s-.2.7-.5 1.6c-2 7.5-4.8 13.2-8.6 17.8-.5.6-.8 1.1-.7 1.1s.5-.4.9-1c3.9-4.7 6.6-10.4 8.5-17.9.2-.9.4-1.6.4-1.6z"/><path class="st2" d="M64.8 42.8c-1.5 1.5-1.7 1.5-1.7 1.4-.1-.1 0-.3 1.6-1.9 1.6-1.6 2.7-2.7 2.7-2.6 0 .1-1.1 1.6-2.6 3.1zM64.5 44.1c-1.6 1.7-1.8 1.7-1.9 1.6-.1-.1.1-.4 1.8-2.1 1.7-1.7 3-2.9 3-2.8s-1.2 1.7-2.9 3.3zM64.7 45c-2 1.5-2.2 1.5-2.2 1.4s.2-.4 2.2-1.9c2-1.6 3.3-2.5 3.3-2.4-.1.1-1.4 1.5-3.3 2.9zM64.5 46.1c-2 1.3-2.3 1.3-2.3 1.1 0-.1.2-.4 2.3-1.7 2.1-1.3 3.4-2.1 3.4-2-.1.2-1.4 1.4-3.4 2.6zM64.3 47.1c-2.1 1-2.4 1-2.4.9s.2-.4 2.4-1.4c2.2-1.1 3.5-1.6 3.5-1.5.1.2-1.3 1-3.5 2zM64.1 49.7c-2.6.7-2.9.7-2.9.5s.3-.5 2.9-1.2 4.1-.7 4.1-.6c0 0-1.5.6-4.1 1.3zM64.2 48.3c-2.3.7-2.6.6-2.5.5 0-.1.3-.4 2.6-1.1 2.3-.7 3.6-.7 3.6-.6-.1.1-1.5.6-3.7 1.2zM63.8 51c-2.6.6-3 .5-2.9.3 0-.2.3-.5 3-1.1 2.6-.6 4.2-.4 4.2-.3-.1.2-1.7.6-4.3 1.1zM62.7 55.2c-3 0-3.3-.1-3.3-.4 0-.2.4-.5 3.4-.4 3 0 4.9.7 4.9.8 0 .1-2 0-5 0zM63.2 53.5c-3 .1-3.3 0-3.3-.2s.3-.4 3.3-.5c2.9-.1 4.8.5 4.8.6 0 .1-1.9.1-4.8.1zM63.8 52.3c-2.9.1-3.3 0-3.2-.2 0-.2.4-.4 3.3-.5 2.9 0 4.6.6 4.6.7 0 0-1.8-.1-4.7 0zM62.3 56.5c-3.2-.2-3.5-.3-3.4-.5 0-.2.3-.4 3.5-.1 3.1.2 5.3.9 5.3 1 0 0-2.2-.2-5.4-.4zM61.8 57.5c-3.2-.1-3.5-.3-3.4-.5 0-.2.3-.4 3.5-.2s5.4.8 5.4.8c0 .1-2.3 0-5.5-.1zM60.9 59.6c-3.6 0-3.8-.2-3.8-.4s.3-.4 3.8-.3 6.2.5 6.2.5c0 .1-2.7.2-6.2.2zM61.5 58.6c-3.6-.1-3.8-.2-3.8-.5 0-.2.3-.4 3.8-.2s6.1.7 6.1.8c.1 0-2.5-.1-6.1-.1zM59.2 62.4c-4 .1-4.1-.2-4-.5s.3-.4 4.2-.3 7.2.1 7.2.1-3.4.5-7.4.7zM57.7 64.2c-3.5-.2-3.5-.7-3.4-.9.1-.3.3-.3 3.8.1 3.5.3 6.5-.1 6.4-.1 0 0-3.3.9-6.8.9zM56.3 65.8c-3-.5-3-1.3-2.9-1.5.2-.4.4 0 3.4.7 3.1.6 5.7-.6 5.7-.6-.1 0-3.1 1.7-6.2 1.4zM60.4 61.1c-4.1.1-4.3-.2-4.3-.5.1-.3.3-.5 4.4-.3 4.1.1 7.3.4 7.3.5.1 0-3.2.2-7.4.3z"/><path class="st2" d="M63.9 42c-.7 1.9-.6 2.1-.5 2 .1 0 .3-.2 1-2.2s1.2-3.3 1.1-3.3c-.1.1-.9 1.6-1.6 3.5zM62.9 43.4c-.5 2.1-.4 2.3-.3 2.3.2 0 .3-.3.8-2.5s.9-3.6.8-3.6c-.1 0-.8 1.7-1.3 3.8z"/><path class="st2" d="M65 40.9c-1.2 2.2-1.2 2.4-1.1 2.4.1 0 .3-.2 1.6-2.5s2.1-3.9 2-3.8c-.1 0-1.3 1.8-2.5 3.9zM62.1 44.8c-.2 2.3-.1 2.6.1 2.5.1 0 .2-.3.4-2.8.2-2.4.3-3.8.2-3.7-.1 0-.5 1.7-.7 4z"/><path class="st2" d="M61.6 45.5c.1 2.3.2 2.5.4 2.5.1 0 .2-.4.1-2.8s-.3-3.7-.3-3.6c-.2.1-.4 1.7-.2 3.9zM60.4 47.3c.6 2.6.8 2.9 1 2.8.2-.1.3-.5-.3-3.2-.6-2.6-1.3-3.9-1.4-3.9-.1.2.1 1.8.7 4.3z"/><path class="st2" d="M61 46.3c.5 2.3.6 2.5.8 2.4.1 0 .2-.4-.3-2.7-.5-2.3-1-3.4-1.1-3.4-.1.2.1 1.6.6 3.7zM59.7 48.4c.8 2.6 1 2.9 1.1 2.7.2-.1.3-.5-.5-3.2-.7-2.6-1.6-3.9-1.7-3.8 0 .2.4 1.8 1.1 4.3zM57.5 52.1c1.4 2.7 1.7 2.9 1.9 2.7.2-.1.2-.5-1.2-3.2-1.4-2.6-2.9-4-3-4s.8 1.8 2.3 4.5zM58.3 50.5c1.3 2.7 1.5 2.9 1.7 2.8s.2-.5-1.1-3.2c-1.3-2.6-2.6-4-2.7-3.9s.8 1.7 2.1 4.3zM58.8 49.4c1.3 2.6 1.6 2.9 1.7 2.8.2-.1.2-.5-1.1-3.1s-2.6-3.8-2.7-3.8.8 1.5 2.1 4.1zM56.6 53.1c1.7 2.7 2 2.9 2.1 2.7.2-.1.2-.5-1.5-3.1s-3.3-4.2-3.4-4.2c-.1.1 1.2 1.9 2.8 4.6zM56.2 54.2c1.6 2.7 1.9 2.8 2.1 2.7.2-.1.2-.4-1.5-3.1s-3.3-4.3-3.3-4.3c-.1.1 1.1 2 2.7 4.7zM54.8 56.2c1.7 3.1 2 3.1 2.2 3s.2-.4-1.6-3.4-3.5-5.1-3.6-5c.1 0 1.3 2.3 3 5.4zM55.5 55c1.8 3 2.1 3.2 2.3 3 .2-.1.2-.4-1.6-3.4s-3.6-4.9-3.7-4.9c0 .1 1.2 2.3 3 5.3zM52.6 58.8c1.9 3.5 2.2 3.4 2.4 3.2s.2-.5-1.8-3.8c-2-3.4-3.8-6.2-3.8-6.1.1 0 1.4 3.1 3.2 6.7zM51.9 60.3c1.8 3.3 2.1 3.2 2.3 3 .2-.3.2-.4-1.7-3.6-1.9-3.3-3.4-6.2-3.4-6.2-.1.1 1.1 3.3 2.8 6.8zM51 61.7c1.8 3.1 2.3 2.8 2.5 2.7.2-.3 0-.4-2-3.3-2-3.1-3-6.3-3-6.3 0-.1.8 3.6 2.5 6.9zM53.5 57.3c2 3.5 2.3 3.5 2.5 3.4.2-.2.3-.5-1.8-3.9s-4.1-6-4.1-6 1.5 2.8 3.4 6.5z"/></g><g><path d="M47.9 27.6h-6.8s-14.3-.3-11.5 16.1 2.9 17.5 2.7 22c0 0 .1 1.6 3.4 1.6 3.4 0 3.1-1.4 3.1-1.4s-3-21.2 2.3-21.2h6.8c5.2 0 2.3 21.2 2.3 21.2s-.2 1.4 3.1 1.4c3.4 0 3.4-1.6 3.4-1.6-.2-4.5-.1-5.6 2.7-22 2.8-16.4-11.5-16.1-11.5-16.1z" fill="#a3a3a3"/><path class="st4" d="M33 28.8s-4 8.7 1 22.6 1.8 18.2 1.8 18.2-.6 2.4 4 2.5c4.5.1 3.6-2.4 3.6-2.4S40.6 49.8 46.8 38c.1.1-2.2-13.4-13.8-9.2z"/><path class="st4" d="M56 28.8s4 8.7-1 22.6c-5 13.9-1.8 18.2-1.8 18.2s.6 2.4-4 2.5c-4.5.1-3.5-2.4-3.5-2.4s2.7-19.8-3.5-31.6c0 0 2.2-13.5 13.8-9.3zM35.9 14.7C30 11 21.8 12.6 18.6 19.1c-2.1 4.2-2.3 9.4.3 13.4 2.9 4.4 7.7 6.1 12.7 5s8.2-4.9 9-9.9l-4.7-12.9z"/><path class="st5" d="M35.5 18.3s-5.4-6.6-13.4-2.1c0 0 9-1.6 13.4 4.9v-2.8z"/><path class="st4" d="M53.1 14.7c5.9-3.7 14.1-2.1 17.3 4.4 2.1 4.2 2.3 9.4-.3 13.4-2.9 4.4-7.7 6.1-12.7 5s-8.2-4.9-9-9.9l4.7-12.9z"/><path class="st5" d="M53.5 18.3s5.4-6.6 13.4-2.1c0 0-9-1.6-13.4 4.9v-2.8z"/><path d="M55.5 18.3c0-6.6-11-6.3-11-6.3s-11-.2-11 6.3c0 4.8-.2 11 4.2 14 1.3 1.2 3.6 4.2 2.8 9.1-1.1 6.9-1.6 15.2 5.3 17.8 0 0 4 1 4.8-1.4 0 0 .4-2.5-1.8-2.2 0 0-2.4 2.1-2.2-.8.2-2.9 4.9-7.2 5.1-14 .1-4.3-.1-7-.4-8.4 4.4-2.8 4.2-9.2 4.2-14.1z" fill="#e7e3e1"/><g><path class="st7" d="M37.4 28.3s-8.2 11.1-2.1 17.9c0 0 .6.4.3-.3-.3-.8-3.9-5.5 3.6-16.2 0 0 .5-.8-.4-1.4-.9-.6-1.4 0-1.4 0zM51.7 28.3s8.2 11.1 2.1 17.9c0 0-.6.4-.3-.3.3-.8 3.9-5.5-3.6-16.2 0 0-.5-.8.4-1.4.8-.6 1.4 0 1.4 0z"/></g><g><defs><path id="SVGID_2_" d="M55.5 18.3c0-6.6-11-6.3-11-6.3s-11-.2-11 6.3c0 4.8-.2 11 4.2 14 1.3 1.2 3.6 4.2 2.8 9.1-1.1 6.9-1.6 15.2 5.3 17.8 0 0 4 1 4.8-1.4 0 0 .4-2.5-1.8-2.2 0 0-2.4 2.1-2.2-.8.2-2.9 4.9-7.2 5.1-14 .1-4.3-.1-7-.4-8.4 4.4-2.8 4.2-9.2 4.2-14.1z"/></defs><clipPath id="SVGID_3_"><use xlink:href="#SVGID_2_" overflow="visible"/></clipPath><path d="M39.3 36.8s3.4-2 8.6-.9c0 0-5.5-.7-8.6 1.8v-.9z" clip-path="url(#SVGID_3_)" fill="#bebbbb"/><defs><path id="SVGID_4_" d="M55.5 18.3c0-6.6-11-6.3-11-6.3s-11-.2-11 6.3c0 4.8-.2 11 4.2 14 1.3 1.2 3.6 4.2 2.8 9.1-1.1 6.9-1.6 15.2 5.3 17.8 0 0 4 1 4.8-1.4 0 0 .4-2.5-1.8-2.2 0 0-2.4 2.1-2.2-.8.2-2.9 4.9-7.2 5.1-14 .1-4.3-.1-7-.4-8.4 4.4-2.8 4.2-9.2 4.2-14.1z"/></defs><clipPath id="SVGID_5_"><use xlink:href="#SVGID_4_" overflow="visible"/></clipPath><path d="M39.8 39.6s3.4-2 8.6-.9c0 0-5.5-.7-8.6 1.8v-.9z" clip-path="url(#SVGID_5_)" fill="#bebbbb"/><g><defs><path id="SVGID_6_" d="M55.5 18.3c0-6.6-11-6.3-11-6.3s-11-.2-11 6.3c0 4.8-.2 11 4.2 14 1.3 1.2 3.6 4.2 2.8 9.1-1.1 6.9-1.6 15.2 5.3 17.8 0 0 4 1 4.8-1.4 0 0 .4-2.5-1.8-2.2 0 0-2.4 2.1-2.2-.8.2-2.9 4.9-7.2 5.1-14 .1-4.3-.1-7-.4-8.4 4.4-2.8 4.2-9.2 4.2-14.1z"/></defs><clipPath id="SVGID_7_"><use xlink:href="#SVGID_6_" overflow="visible"/></clipPath><path d="M38.6 43s3.4-2 8.6-.9c0 0-5.5-.7-8.6 1.8V43z" clip-path="url(#SVGID_7_)" fill="#bebbbb"/></g><g><defs><path id="SVGID_8_" d="M55.5 18.3c0-6.6-11-6.3-11-6.3s-11-.2-11 6.3c0 4.8-.2 11 4.2 14 1.3 1.2 3.6 4.2 2.8 9.1-1.1 6.9-1.6 15.2 5.3 17.8 0 0 4 1 4.8-1.4 0 0 .4-2.5-1.8-2.2 0 0-2.4 2.1-2.2-.8.2-2.9 4.9-7.2 5.1-14 .1-4.3-.1-7-.4-8.4 4.4-2.8 4.2-9.2 4.2-14.1z"/></defs><clipPath id="SVGID_9_"><use xlink:href="#SVGID_8_" overflow="visible"/></clipPath><path d="M37.6 46.2s3.4-2 8.6-.9c0 0-5.5-.7-8.6 1.8v-.9z" clip-path="url(#SVGID_9_)" fill="#bebbbb"/></g><g><defs><path id="SVGID_10_" d="M55.5 18.3c0-6.6-11-6.3-11-6.3s-11-.2-11 6.3c0 4.8-.2 11 4.2 14 1.3 1.2 3.6 4.2 2.8 9.1-1.1 6.9-1.6 15.2 5.3 17.8 0 0 4 1 4.8-1.4 0 0 .4-2.5-1.8-2.2 0 0-2.4 2.1-2.2-.8.2-2.9 4.9-7.2 5.1-14 .1-4.3-.1-7-.4-8.4 4.4-2.8 4.2-9.2 4.2-14.1z"/></defs><clipPath id="SVGID_11_"><use xlink:href="#SVGID_10_" overflow="visible"/></clipPath><path d="M36.4 50s3.4-2 8.6-.9c0 0-5.5-.7-8.6 1.8V50z" clip-path="url(#SVGID_11_)" fill="#bebbbb"/></g><g><defs><path id="SVGID_12_" d="M55.5 18.3c0-6.6-11-6.3-11-6.3s-11-.2-11 6.3c0 4.8-.2 11 4.2 14 1.3 1.2 3.6 4.2 2.8 9.1-1.1 6.9-1.6 15.2 5.3 17.8 0 0 4 1 4.8-1.4 0 0 .4-2.5-1.8-2.2 0 0-2.4 2.1-2.2-.8.2-2.9 4.9-7.2 5.1-14 .1-4.3-.1-7-.4-8.4 4.4-2.8 4.2-9.2 4.2-14.1z"/></defs><clipPath id="SVGID_13_"><use xlink:href="#SVGID_12_" overflow="visible"/></clipPath><path d="M36.4 54.2s3-2.5 8.3-2.4c0 0-5.5.3-8.2 3.2l-.1-.8z" clip-path="url(#SVGID_13_)" fill="#bebbbb"/></g></g><g><path class="st14" d="M39.8 25.4c0-.3-.2-.5-.5-.5s-.5.2-.5.5.2.5.5.5.5-.2.5-.5z"/><circle class="st14" cx="49.7" cy="25.4" r=".5"/></g></g></g></svg>